<?xml version="1.0" encoding="UTF-8" standalone="no"?>
<!-- Uploaded to: SVG Repo, www.svgrepo.com, Generator: SVG Repo Mixer Tools -->

<svg
   width="662.5"
   height="662.50238"
   viewBox="0 0 26.5 26.500095"
   data-name="Layer 1"
   id="Layer_1"
   version="1.1"
   xmlns="http://www.w3.org/2000/svg"
   xmlns:svg="http://www.w3.org/2000/svg">
  <defs
     id="defs5" />
  <path
     id="path1"
     d="m 26.499999,13.250008 a 13.2042,13.2042 0 0 1 -4.369219,9.804609 l -4.379531,-3.503672 a 7.7446,7.7446 0 0 1 -11.7835154,-3.675 L 1.5349211,19.422117 A 13.244,13.244 0 0 0 26.499999,13.250008 Z m -6.352578,3.5 a 7.7446,7.7446 0 0 1 -0.0038,0.0075 7.7387,7.7387 0 0 0 0.0044,-0.0075 z m -0.459219,0.787656 a 7.7446,7.7446 0 0 1 -0.0243,0.03563 7.7387,7.7387 0 0 0 0.0243,-0.03563 z m -0.564687,0.748516 a 7.7446,7.7446 0 0 1 -0.02211,0.02461 7.7387,7.7387 0 0 0 0.02211,-0.02461 z"
     style="fill:#00ac47;fill-opacity:1" />
  <path
     id="path2"
     d="m 13.749999,11.250008 v 5.5 h 6.398047 a 7.7387,7.7387 0 0 1 -2.399609,2.798672 l 4.382343,3.505937 a 13.2042,13.2042 0 0 0 4.369219,-9.804609 v -1 a 1,1 0 0 0 -1,-1 z"
     style="fill:#4285f4;fill-opacity:1" />
  <path
     d="m 5.4999992,13.250008 a 7.698,7.698 0 0 1 0.4677,-2.6259 l -4.4328,-3.5461997 a 13.177,13.177 0 0 0 0,12.3441997 l 4.4328,-3.5462 a 7.698,7.698 0 0 1 -0.4677,-2.6259 z"
     fill="#ffba00"
     id="path3" />
  <polygon
     fill="#2ab2db"
     points=""
     id="polygon3"
     transform="translate(-2.7500008,-2.7499917)" />
  <path
     d="m 13.249999,5.5000083 a 7.699,7.699 0 0 1 4.558,1.4958 l 4.06,-3.7893 a 13.2152,13.2152 0 0 0 -20.3330998,3.8714 l 4.4328,3.5461997 A 7.756,7.756 0 0 1 13.249999,5.5000083 Z"
     fill="#ea4435"
     id="path4" />
  <polygon
     fill="#2ab2db"
     points=""
     id="polygon4"
     transform="translate(-2.7500008,-2.7499917)" />
</svg>
