<?xml version="1.0" encoding="UTF-8" standalone="no"?>
<!-- Created with Inkscape (http://www.inkscape.org/) -->

<svg
   id="svg663"
   version="1.1"
   viewBox="0 0 67.733382 67.733331"
   height="256"
   width="256.00018"
   xmlns="http://www.w3.org/2000/svg"
   xmlns:svg="http://www.w3.org/2000/svg">
  <defs
     id="defs660" />
  <path
     id="path3"
     style="color:#000000;fill:#0084ff;fill-opacity:1;fill-rule:evenodd;stroke-width:0.65171;stroke-linecap:round;-inkscape-stroke:none"
     d="M 33.866161,0 C 22.19606,0 12.699498,9.4965674 12.699498,21.166666 c 0,11.670106 9.496562,21.166334 21.166663,21.166334 11.670104,0 21.167675,-9.496228 21.167675,-21.166334 C 55.033836,9.4965674 45.536263,6.8391284e-6 33.866161,0 Z m 0,3.3769028 c 9.844741,0 17.789429,7.9450202 17.789429,17.7897632 0,9.844744 -7.944688,17.789431 -17.789429,17.789431 -9.844738,0 -17.788417,-7.944687 -17.788417,-17.789431 0,-9.844743 7.943679,-17.7897632 17.788417,-17.7897632 z m -2.720513,1.9071841 c -5.111616,0.048947 -9.929437,3.622056 -11.491294,8.6067671 -1.816695,5.798052 1.070754,12.37901 7.404123,14.178813 C 34.401157,30.1563 41.765781,24.826678 42.259746,17.093984 42.684333,10.4474 37.584364,5.4998622 31.641053,5.2904932 c -0.165404,-0.00586 -0.330514,-0.00792 -0.495405,-0.00656 z M 30.924383,6.713053 c 0.142417,6.52e-4 0.28514,0.00459 0.428047,0.011795 5.05215,0.2536399 9.180374,4.504173 8.69433,10.055597 -0.550884,6.291997 -6.515138,10.603335 -12.536997,9.046268 -5.328794,-1.377873 -7.893876,-6.782206 -6.423417,-11.7331 1.285605,-4.3284981 5.42313,-7.4014353 9.838037,-7.380547 z m -0.63921,2.0695196 c -3.238275,0.071695 -6.253367,2.3959934 -7.130993,5.6040314 -1.011423,3.697107 1.049492,7.603999 4.950675,8.482492 4.257633,0.958752 8.49446,-2.100306 9.018649,-6.502896 0.479257,-4.025204 -2.440082,-7.2975008 -6.188343,-7.5674586 -0.217303,-0.015643 -0.434101,-0.02093 -0.649988,-0.016162 z m -0.163338,1.5552484 c 0.165826,-0.0014 0.332643,0.0051 0.499783,0.0202 2.832514,0.250812 4.91494,2.733156 4.493663,5.723586 -0.450022,3.194477 -3.490876,5.387809 -6.602249,4.757695 -2.917422,-0.590814 -4.523873,-3.424789 -3.804947,-6.232461 0.635286,-2.481024 2.926341,-4.252397 5.41375,-4.26903 z m -0.212846,2.133165 c -1.41656,-0.0157 -2.750169,1.017262 -3.079859,2.436608 -0.363579,1.56524 0.599807,3.114165 2.194799,3.392393 1.650951,0.287992 3.293745,-0.894674 3.576612,-2.574684 0.27303,-1.621599 -0.839201,-3.062218 -2.407646,-3.236798 -0.0949,-0.01055 -0.189468,-0.01648 -0.283906,-0.01753 z m -0.28761,1.707144 c 0.07557,-0.0052 0.15274,-0.0032 0.230358,0.0071 0.629168,0.08153 1.033339,0.639915 0.912674,1.279764 -0.122347,0.648778 -0.726295,1.082992 -1.368003,0.984076 -0.633106,-0.09761 -1.014776,-0.671385 -0.880008,-1.302671 0.116339,-0.544947 0.575892,-0.933463 1.104979,-0.968246 z" />
  <path
     d="M 2.756907,50.651321 H 0 v -3.000163 h 8.4328919 v 3.000163 H 5.675985 V 67.517105 H 2.756907 Z m 14.94676,16.865784 H 14.784589 L 13.270993,59.13827 h -0.783827 v 8.378835 H 9.5680882 V 47.651158 h 2.9190778 q 2.621765,0 3.78399,1.459539 1.189254,1.459539 1.189254,4.270503 0,1.486567 -0.405427,2.729878 -0.378399,1.216283 -1.216283,1.783881 z M 14.649446,53.489314 q 0,-1.054112 -0.243256,-1.648739 -0.216228,-0.621655 -0.54057,-0.89194 -0.324342,-0.297314 -0.702741,-0.351371 -0.378399,-0.05406 -0.675713,-0.05406 v 5.892213 q 0.297314,0 0.675713,-0.08109 0.378399,-0.08109 0.702741,-0.351371 0.324342,-0.297313 0.54057,-0.864912 0.243256,-0.594627 0.243256,-1.648738 z m 4.675931,14.027791 V 47.651158 h 6.676039 v 3.000163 h -3.756961 v 5.216501 h 2.70285 v 3.189363 h -2.70285 v 5.459757 h 3.756961 v 3.000163 z m 14.379142,0 H 32.461208 L 30.596242,55.029938 30.488128,54.192055 h -0.162171 v 13.32505 h -2.70285 V 47.651158 h 3.567762 l 1.729824,9.081576 0.135142,1.054111 h 0.05406 l 0.135143,-1.054111 1.729823,-9.081576 h 3.567762 v 19.865947 h -2.70285 v -13.32505 h -0.162171 l -0.108114,0.837883 z M 48.299887,51.732461 v 11.703341 q -0.05406,1.243311 -0.486513,2.16228 -0.1892,0.405427 -0.486513,0.783826 -0.270285,0.378399 -0.675713,0.675713 -0.837883,0.675712 -2.243365,0.675712 -1.432511,0 -2.270394,-0.675712 -0.405428,-0.297314 -0.675713,-0.675713 -0.270285,-0.378399 -0.459484,-0.783826 -0.432456,-0.918969 -0.486513,-2.16228 V 51.732461 q 0.05406,-1.216282 0.486513,-2.135251 0.189199,-0.405428 0.459484,-0.783827 0.270285,-0.405427 0.675713,-0.702741 0.405427,-0.297313 0.973026,-0.486513 0.567598,-0.189199 1.297368,-0.189199 0.729769,0 1.270339,0.189199 0.567599,0.1892 0.973026,0.486513 0.405428,0.297314 0.675713,0.702741 0.297313,0.378399 0.486513,0.783827 0.432456,0.918969 0.486513,2.135251 z M 45.380809,63.435802 V 51.732461 q 0,-0.783826 -0.378399,-1.243311 -0.216228,-0.216228 -0.594627,-0.216228 -0.378399,0 -0.594627,0.243257 -0.1892,0.216228 -0.270285,0.486513 -0.108114,0.297313 -0.108114,0.729769 v 11.703341 q 0,0.783826 0.405427,1.243311 0.216228,0.216228 0.567599,0.216228 0.378399,0 0.567598,-0.216228 0.216228,-0.216228 0.297314,-0.513542 0.108114,-0.243256 0.108114,-0.729769 z m 13.02774,4.081303 H 55.489471 L 53.975875,59.13827 h -0.783826 v 8.378835 H 50.272971 V 47.651158 h 2.919078 q 2.621764,0 3.78399,1.459539 1.189254,1.459539 1.189254,4.270503 0,1.486567 -0.405428,2.729878 -0.378399,1.216283 -1.216282,1.783881 z m -3.05422,-14.027791 q 0,-1.054112 -0.243257,-1.648739 -0.216228,-0.621655 -0.54057,-0.89194 -0.324342,-0.297314 -0.702741,-0.351371 -0.378399,-0.05406 -0.675712,-0.05406 v 5.892213 q 0.297313,0 0.675712,-0.08109 0.378399,-0.08109 0.702741,-0.351371 0.324342,-0.297313 0.54057,-0.864912 0.243257,-0.594627 0.243257,-1.648738 z m 4.486732,-1.405482 q 0,-0.810855 0.1892,-1.62171 0.216228,-0.837884 0.675712,-1.513596 0.459485,-0.648684 1.189254,-1.054112 0.72977,-0.432456 1.756853,-0.459484 1.324396,-0.02703 2.108223,0.486513 0.810855,0.486513 1.243311,1.270339 0.432456,0.810855 0.567598,1.756853 0.162171,0.918969 0.162171,1.756852 l -2.865021,0.270285 q 0,-0.486513 -0.05406,-1.000054 -0.02703,-0.513542 -0.162171,-0.945998 -0.135142,-0.405427 -0.378399,-0.648684 -0.216228,-0.270285 -0.567598,-0.270285 -0.567599,0.02703 -0.783827,0.567599 -0.216228,0.54057 -0.216228,1.405482 0,0.513541 0.1892,1.054111 0.216228,0.513542 0.54057,1.08114 0.324342,0.567599 0.729769,1.162226 0.405428,0.594627 0.837884,1.216282 0.513541,0.756798 1.000054,1.513596 0.486513,0.756798 0.864912,1.513596 0.378399,0.756798 0.621656,1.540625 0.243256,0.756798 0.243256,1.567653 0,1.000054 -0.189199,1.891995 -0.1892,0.89194 -0.648684,1.594681 -0.459485,0.675713 -1.243311,1.108169 -0.783827,0.405427 -1.973081,0.405427 -1.405482,0 -2.243365,-0.486513 -0.810855,-0.486513 -1.27034,-1.297368 -0.432456,-0.810855 -0.594627,-1.837938 -0.135142,-1.054111 -0.135142,-2.16228 l 2.865021,-0.270285 q 0,0.621656 0.02703,1.243311 0.05406,0.594627 0.216228,1.054112 0.135143,0.486513 0.405428,0.783826 0.270285,0.297314 0.729769,0.297314 0.648684,0 0.918969,-0.621656 0.270285,-0.621655 0.270285,-1.567653 0,-0.486513 -0.216228,-1.027083 -0.216228,-0.567598 -0.54057,-1.162225 -0.189199,-0.297314 -0.378399,-0.594627 -0.162171,-0.297314 -0.378399,-0.594627 -0.432456,-0.621656 -0.89194,-1.297368 -0.459485,-0.675713 -0.945998,-1.432511 -1.000054,-1.540624 -1.43251,-3.081249 -0.243257,-0.783826 -0.243256,-1.594681 z"
     id="text12"
     style="font-size:27.0285px;line-height:1.25;font-family:'League Gothic';-inkscape-font-specification:'League Gothic';letter-spacing:0px;word-spacing:0px;stroke-width:2.53391"
     aria-label="TREMORS" />
</svg>
